# xmcd CD database file
#
# Track frame offsets:
#	150
#	24025
#	51035
#	79280
#	107525
#	118475
#	136810
#	162920
#	190427
#	220257
#	244430
#	272940
#
# Disc length: 3940 seconds
#
# Revision: 5
# Processed by: cddbd v1.5.2PL0 Copyright (c) Steve Scherf et al.
# Submitted via: CDex 1.92
#
DISCID=ad0f620c
DTITLE=Deep Forest - Made In Japan
DYEAR=1999
DGENRE=New Age
TTITLE0=Ekue Ekue
TTITLE1=Green And Blue
TTITLE2=Deep Weather
TTITLE3=Bohemian Ballet
TTITLE4=Deep Folk Song
TTITLE5=Freedom Cry
TTITLE6=Cafe Europa
TTITLE7=Forest Power
TTITLE8=Hunting
TTITLE9=Forest Hymn
TTITLE10=Sweet Lullaby
TTITLE11=Madazulu
EXTD=YEAR: 1999
EXTT0=
EXTT1=
EXTT2=
EXTT3=
EXTT4=
EXTT5=
EXTT6=
EXTT7=
EXTT8=
EXTT9=
EXTT10=
EXTT11=
PLAYORDER=
